<svg xmlns="http://www.w3.org/2000/svg" viewBox="0 0 511.999 511.999">
  <path d="M340.677 275.629h-65.131v-65.131c0-10.795-8.752-19.547-19.547-19.547s-19.547 8.752-19.547 19.547v84.679c0 10.795 8.752 19.547 19.547 19.547h84.678c10.795 0 19.547-8.752 19.547-19.547s-8.752-19.548-19.547-19.548zm-65.133-161.928V73.559h19.547c10.795 0 19.547-8.752 19.547-19.547s-8.752-19.547-19.547-19.547h-78.188c-10.795 0-19.547 8.752-19.547 19.547s8.752 19.547 19.547 19.547h19.546V113.7c-91.44 9.785-162.893 87.397-162.893 181.392 0 100.599 81.843 182.443 182.441 182.443s182.441-81.844 182.442-182.441c-.002-93.996-71.456-171.608-162.895-181.393zM255.997 438.44c-79.041 0-143.346-64.306-143.346-143.349s64.305-143.346 143.346-143.346 143.346 64.306 143.347 143.349-64.305 143.345-143.347 143.346zM511.62 244.248c-13.581-68.28-52.938-127.183-110.821-165.861a19.55 19.55 0 0 0-21.721 32.507c49.202 32.876 82.655 82.944 94.198 140.981 1.851 9.302 10.016 15.738 19.151 15.738a19.71 19.71 0 0 0 3.833-.379c10.589-2.107 17.465-12.398 15.36-22.986zM138.313 83.781c-5.998-8.976-18.139-11.391-27.113-5.394C53.317 117.064 13.959 175.968.379 244.248c-2.106 10.588 4.771 20.879 15.359 22.985a19.72 19.72 0 0 0 3.834.379c9.135 0 17.301-6.436 19.151-15.738 11.542-58.037 44.996-108.105 94.197-140.98 8.976-5.998 11.391-18.137 5.393-27.113z"/>
</svg>
